<svg width="319" height="402" viewBox="0 0 319 402" fill="none" xmlns="http://www.w3.org/2000/svg">
<path d="M318.21 383.783C308.643 405.566 -24.5171 404.893 1.64853 378.275C27.8141 351.657 327.776 362 318.21 383.783Z" fill="#E1E1E1"/>
<path d="M196.338 50.4514C196.338 50.4514 193.962 42.7888 194.171 41.7848C194.299 41.1673 195.779 37.3674 196.276 36.1213C196.461 35.6575 196.648 35.1856 196.693 34.6866C196.739 34.1762 196.633 33.6632 196.508 33.1645C196.161 31.7805 195.657 30.439 195.156 29.1015C195.022 28.7459 194.887 28.3878 194.687 28.0645C194.445 27.673 194.115 27.3439 193.786 27.021C191.907 25.1753 189.971 23.3884 187.98 21.6627C187.875 21.5717 187.761 21.4763 187.622 21.4616C187.293 21.426 186.17 23.6379 186.138 24.149C186.007 26.282 186.47 28.455 187.461 30.3645C187.659 30.7446 187.879 31.1211 187.973 31.5379C188.222 32.6438 187.543 33.705 187.202 34.7794C186.895 35.7503 186.577 36.7883 186.446 37.7996C186.206 39.6533 187.824 40.913 188.065 41.2543C188.198 41.4432 188.239 41.6792 188.279 41.9056C188.541 43.3832 189.025 48.9107 189.025 48.9107" fill="#FCD2B1"/>
<path d="M227.359 65.2563C225.241 66.7043 224.999 70.138 224.886 72.4695C224.749 75.278 225.143 78.0872 225.7 80.8337C226.087 82.745 226.594 84.7243 227.886 86.1854C228.545 86.9314 229.375 87.5016 230.198 88.0637C230.663 88.3826 231.139 88.7062 231.682 88.8614C232.224 89.0163 232.854 88.9766 233.291 88.6193C233.927 88.0971 233.938 87.1438 233.897 86.3212C233.626 80.9581 233.464 75.4989 234.828 70.305" fill="#0B4870"/>
<path d="M213.113 358.803C213.113 358.803 213.068 363.863 213.425 365.658C213.783 367.453 219.566 366.874 220.121 365.852C220.675 364.83 219.984 356.469 219.984 356.469" fill="#FCD2B1"/>
<path d="M221.797 367.579C221.955 369.476 221.944 373.058 221.944 373.058L216.015 374.489L215.261 373.48C215.261 373.48 213.604 374.897 211.777 375.381C210.421 375.739 207.585 376.014 206.185 375.92C201.287 375.592 197.908 374.064 197.74 373.347C197.038 370.351 203.548 370.727 204.872 370.616C208.676 370.299 211.239 367.567 211.98 365.622C212.519 364.211 212.202 363.891 213.01 364.079C213.01 364.079 213.731 364.168 214.274 364.969C215.106 366.198 216.554 366.947 218.026 366.568C218.868 366.351 219.697 365.964 220.264 365.286C220.264 365.286 221.639 365.683 221.797 367.579Z" fill="#0B4870"/>
<path d="M224.445 296.71C223.882 287.821 231.057 275.925 231.057 275.925C231.057 275.925 211.685 265.275 211.393 261.962C211.393 261.962 208.741 280.252 207.789 286.706C206.136 297.915 211.725 361.856 211.725 361.856C211.725 361.856 215.78 362.981 221.164 361.987C221.164 361.987 222.171 337.289 226.207 320.559C228.12 312.626 225.113 298.908 224.445 296.71Z" fill="#0E538C"/>
<path d="M225.996 194.23C218.724 210.471 210.825 262.876 208.932 280.967C208.129 288.638 214.513 297.628 221.948 290.692C230.823 282.412 243.308 244.479 247.769 237.783C252.23 231.087 268.921 224.949 257.522 190.974" fill="#0E538C"/>
<path d="M258.662 359.121C258.662 359.121 259.317 366.254 259.574 368.066C259.831 369.878 265.638 369.623 266.248 368.634C266.859 367.645 266.635 359.257 266.635 359.257" fill="#FCD2B1"/>
<path d="M267.886 370.138C268.014 372.037 267.693 375.165 267.693 375.165L261.013 375.614L260.609 374.52C260.609 374.52 258.518 375.782 256.816 375.896L251.177 376.275C247.05 376.553 244.671 376.185 244.517 375.465C243.877 372.456 248.817 372.263 250.101 372.177C253.788 371.929 257.664 369.933 258.408 368.002C258.948 366.601 258.646 366.276 259.426 366.479C259.426 366.479 260.122 366.581 260.637 367.39C261.427 368.634 262.818 369.41 264.248 369.058C265.066 368.857 265.875 368.484 266.433 367.816C266.433 367.816 267.759 368.238 267.886 370.138Z" fill="#0B4870"/>
<path d="M244.132 295.661C245.363 301.981 261.862 299.62 261.506 294.023C260.999 286.066 266.572 275.781 268.709 237.905C268.953 233.578 273.286 232.943 274.991 221.175C276.674 209.386 269.697 196.337 269.697 196.337L244.312 192.701C244.312 192.701 234.556 214.729 236.574 236.692C238.591 258.656 242.673 288.219 244.132 295.661Z" fill="#0E538C"/>
<path d="M261.465 292.694C261.465 292.694 267.236 304.135 267.913 312.404C268.904 324.504 267.679 364.329 267.679 364.329C267.679 364.329 261.436 365.686 258.103 364.702C258.103 364.702 243.449 294.044 242.912 286.446C242.374 278.849 261.465 292.694 261.465 292.694Z" fill="#0E538C"/>
<path d="M216.166 117.645C219.035 114.351 228.143 108.922 240.316 109.306C248.703 109.571 271.544 110.957 274.096 116.571C275.401 119.441 276.802 148.831 274.891 158.965C273.455 166.585 269.78 185.462 269.78 190.018C269.78 194.573 272.226 196.526 271.085 197.849C268.529 200.812 251.052 202.056 242.847 202.056C235.544 202.056 223.114 200.108 222.483 197.766C221.547 194.291 223.908 194.421 224.228 190.778C224.548 187.136 226.269 163.109 224.13 159.616C220.736 154.074 217.365 139.475 217.104 135.298C216.844 131.121 213.297 120.938 216.166 117.645Z" fill="#2A94F4"/>
<path d="M237.654 100.577C237.654 100.577 237.572 110.714 237.164 111.123C237.096 111.191 236.983 111.274 236.843 111.365C235.552 112.206 234.971 113.797 235.337 115.295C235.952 117.809 237.02 121.039 238.387 120.633C239.914 120.18 247.363 116.514 251.805 114.3C252.988 113.71 253.418 112.369 253.109 111.082C253.099 111.041 253.094 111 253.094 110.959C253.094 110.142 255.054 94.2013 255.054 94.2013" fill="#FCD2B1"/>
<path d="M236.71 63.3236C234.875 64.5385 229.198 65.1909 228.457 67.8754C227.716 70.5595 228.184 76.3009 228.118 77.9495C227.986 81.2313 228.3 84.588 228.497 87.8611C228.753 92.1266 229.413 99.8773 234.33 101.894C235.742 102.473 236.337 102.623 237.784 102.421C239.708 102.151 241.638 101.927 243.562 101.655C246.543 101.232 249.855 100.793 252.351 98.9626C255.686 96.517 256.042 90.7033 255.852 86.8968L254.766 65.0941L236.71 63.3236Z" fill="#FFE3CA"/>
<path d="M236.41 129.988C236.848 121.505 207.635 88.24 207.99 86.7961C208.346 85.3526 194.883 42.9907 194.883 42.9907L187.232 43.5837C187.232 43.5837 189.734 79.4061 193.15 91.3802C195.555 99.8093 214.299 124.64 214.299 124.64C214.299 124.64 235.972 138.47 236.41 129.988Z" fill="#2A94F4"/>
<path d="M256.382 186.106L300.444 194.43C301.645 194.656 302.397 195.861 302.074 197.041L296.171 227.539C295.883 228.59 294.836 229.244 293.765 229.042L249.703 220.719C248.502 220.492 247.75 219.287 248.073 218.108L253.976 187.61C254.264 186.558 255.311 185.904 256.382 186.106Z" fill="#0B4870"/>
<path d="M256.897 188.448L299.084 196.417L293.24 226.7L251.053 218.731L256.897 188.448Z" fill="#F7F7F7"/>
<path d="M255.781 217.145L260.39 191.365" stroke="#D3D3D3" stroke-width="0.5282" stroke-miterlimit="10" stroke-linecap="round" stroke-linejoin="round"/>
<path d="M259.762 217.917L264.37 192.138" stroke="#D3D3D3" stroke-width="0.5282" stroke-miterlimit="10" stroke-linecap="round" stroke-linejoin="round"/>
<path d="M265.488 219.09L270.097 193.311" stroke="#D3D3D3" stroke-width="0.5282" stroke-miterlimit="10" stroke-linecap="round" stroke-linejoin="round"/>
<path d="M271.214 220.263L275.823 194.484" stroke="#D3D3D3" stroke-width="0.5282" stroke-miterlimit="10" stroke-linecap="round" stroke-linejoin="round"/>
<path d="M276.94 221.437L282.108 195.658" stroke="#D3D3D3" stroke-width="0.5282" stroke-miterlimit="10" stroke-linecap="round" stroke-linejoin="round"/>
<path d="M282.657 222.61L287.825 196.831" stroke="#D3D3D3" stroke-width="0.5282" stroke-miterlimit="10" stroke-linecap="round" stroke-linejoin="round"/>
<path d="M288.383 223.784L293.761 198.005" stroke="#D3D3D3" stroke-width="0.5282" stroke-miterlimit="10" stroke-linecap="round" stroke-linejoin="round"/>
<path d="M279.749 208.275C279.749 208.275 278.006 211.832 277.073 213.639C276.464 214.817 271.836 218.761 269.98 221.904C269.085 223.421 268.296 225.133 268.524 226.88C268.753 228.627 270.393 230.282 272.114 229.913C272.605 229.807 273.166 229.567 273.562 229.875C273.763 230.031 273.851 230.287 273.975 230.509C274.355 231.193 275.176 231.602 275.95 231.495C276.724 231.389 277.403 230.774 277.585 230.013C278.769 231.12 280.828 231.097 281.986 229.964C281.297 229.396 280.783 228.517 280.924 227.634C281.06 226.783 281.745 226.147 282.27 225.464C283.196 224.261 283.692 222.734 283.651 221.215C283.622 220.133 283.331 219.075 283.212 217.999C282.967 215.791 283.475 213.506 284.63 211.609" fill="#FCD2B1"/>
<path d="M266.471 137.035C267.802 141.785 288.084 173.026 288.084 173.026L277.227 212.626L283.416 216.502C283.416 216.502 302.72 184.405 302.78 175.342C302.839 166.278 288.658 133.05 278.292 119.464C274.991 115.139 268.377 112.956 268.377 112.956" fill="#2A94F4"/>
<path d="M256.771 82.7501C255.259 82.4265 254.03 81.9637 253.605 83.4509C253.38 84.2395 253.407 85.2166 252.734 85.6844C252.063 86.1501 251.074 85.7354 250.642 85.0419C250.21 84.3484 250.184 83.4862 250.169 82.6694C250.138 80.8619 250.107 79.0544 250.077 77.2468C250.046 75.4768 249.959 73.5496 248.81 72.2037C248.23 71.5242 247.429 71.0662 246.603 70.7261C243.91 69.6165 240.887 69.6455 237.995 69.9849C235.103 70.3243 232.235 70.9562 229.324 70.9954C228.1 71.0116 226.851 70.9173 225.718 70.4571C223.886 69.7141 222.517 68.0475 221.877 66.1762C221.238 64.3048 221.277 62.2504 221.707 60.3203C222.118 60.8997 222.596 61.4321 223.128 61.9036C223.174 60.932 223.418 59.9702 223.842 59.0947C226.082 63.2378 244.127 55.6551 249.095 56.1692C252.538 56.5251 255.311 56.5864 256.822 61.4824C257.013 61.7704 257.349 61.9201 257.664 62.0628C261.128 63.6311 263.259 66.2242 265.047 70.5287C267.235 75.7949 266.018 82.6796 264.404 88.1488C263.998 89.5233 263.829 90.46 263.018 91.6416C262.206 92.8227 260.453 93.8498 259.032 94.0347C257.612 94.22 255.017 95.2034 254.543 93.8505C254.205 92.8825 255.712 90.4586 256.03 89.484" fill="#0B4870"/>
<path d="M253.599 89.4531C253.599 89.4531 253.679 90.4306 254.479 90.9568C255.18 91.4184 256.157 90.996 256.774 90.5443C258.533 89.2575 259.258 86.8901 258.976 84.7857C258.643 82.3056 256.62 80.3829 254.683 81.6951C253.55 82.463 253.237 84.1392 253.678 85.4352" fill="#FFE3CA"/>
<path d="M249.178 209.053L252.992 209.956L255.745 195.688L251.921 194.879L249.178 209.053Z" fill="#0B4870"/>
<path d="M246.634 204.662C247.533 204.832 251.004 205.489 251.004 205.489L252.293 198.665L247.923 197.839C246.04 197.482 244.225 198.721 243.869 200.606C243.513 202.49 244.75 204.306 246.634 204.662ZM246.961 203.173C245.904 202.973 245.209 201.954 245.409 200.897C245.609 199.839 246.627 199.144 247.683 199.344C248.74 199.544 249.435 200.563 249.235 201.62C249.035 202.678 248.017 203.373 246.961 203.173Z" fill="#0B4870"/>
<path d="M170.285 28.0887C170.608 25.3639 164.34 23.52 163.711 25.7726C163.644 26.0141 163.101 26.6775 162.954 27.691C162.829 28.5551 162.451 29.5623 162.342 30.4316C162.242 31.2212 162.431 34.9166 160.588 35.3114C157.764 35.9168 159.554 31.0003 157.563 29.8973C156.938 29.5513 156.274 33.363 156.227 35.5191C156.18 37.6744 156.168 38.7547 156.371 40.0239C156.547 41.2938 157.249 43.09 157.15 43.8591C156.992 45.0971 155.547 47.6403 155.547 47.6403L162.68 49.2651C162.68 49.2651 164.366 45.3418 165.228 44.4293C167.394 42.2673 168.75 39.7858 169.547 36.7843C170.046 34.9041 170.217 32.9414 170.361 31.0069C170.361 31.0065 170.251 28.3698 170.285 28.0887Z" fill="#FCD2B1"/>
<path d="M103.212 87.7578C103.212 87.7578 125.834 87.5578 138.115 73.7843C147.914 60.0464 157.379 44.8477 158.085 43.4373C160.013 44.1748 164.157 46.0718 164.157 46.0718C164.157 46.0718 151.213 75.0535 146.171 81.673C141.129 88.2921 131.21 99.1334 110.246 104.515C100.204 92.9782 103.212 87.7578 103.212 87.7578Z" fill="#FCD2B1"/>
<path d="M117.958 357.986C117.958 357.986 119.259 360.958 119.194 362.952C119.128 364.946 112.805 365.354 112.027 364.354C111.249 363.353 110.505 354.236 110.505 354.236" fill="#FCD2B1"/>
<path d="M110.426 366.177C110.511 368.25 111.226 371.603 111.226 371.603L118.52 371.302L118.829 370.07C118.829 370.07 121.244 371.191 123.102 371.114L129.258 370.86C133.764 370.675 136.299 369.995 136.381 369.197C136.72 365.861 131.343 366.233 129.941 366.291C125.916 366.457 121.48 364.751 120.447 362.745C119.696 361.29 119.986 360.902 119.164 361.214C119.164 361.214 118.421 361.406 117.959 362.345C117.249 363.786 115.832 364.791 114.241 364.578C113.331 364.456 112.41 364.148 111.727 363.49C111.727 363.49 110.341 364.104 110.426 366.177Z" fill="#0B4870"/>
<path d="M46.7136 354.027C46.7136 354.027 45.5842 359.426 44.7848 361.254C43.9862 363.083 37.9616 361.118 37.6092 359.9C37.2561 358.683 39.9398 349.939 39.9398 349.939" fill="#FCD2B1"/>
<path d="M35.4477 361.001C34.7598 362.958 33.7764 366.736 33.7764 366.736L39.4405 369.808L40.4915 368.944C40.4915 368.944 41.7921 370.874 43.5254 371.865C44.8125 372.601 47.6345 373.639 49.0917 373.909C54.19 374.855 58.0685 374.136 58.4392 373.425C59.9895 370.452 53.2301 369.131 51.9063 368.666C48.106 367.328 46.2444 363.773 46.0258 361.527C45.8674 359.897 46.2799 359.644 45.4014 359.629C45.4014 359.629 44.6398 359.532 43.8628 360.233C42.6703 361.309 40.9821 361.716 39.5828 360.929C38.7827 360.479 38.0413 359.852 37.6504 358.987C37.6511 358.987 36.1356 359.043 35.4477 361.001Z" fill="#0B4870"/>
<path d="M66.484 210.622C66.484 210.622 55.5968 187.282 72.1742 169.329C72.1742 169.329 87.1965 175.329 99.0408 175.639C108.367 175.884 113.051 174.725 113.051 174.725C113.051 174.725 115.855 191.923 115.822 219.069L66.484 210.622Z" fill="#FFBE55"/>
<path d="M109.898 360.614C110.198 360.624 110.497 360.611 110.775 360.6C116.929 360.41 120.402 359.54 120.402 359.54L120.329 357.766C118.868 330.594 120.329 286.025 120.392 271.956C120.394 270.972 120.336 270.075 120.196 269.267C118.705 259.031 108.146 260.814 104.071 270.445C103.115 272.69 102.382 275.16 101.849 277.816C101.189 281.011 100.797 284.474 100.627 288.142C99.5198 311.695 107.362 343.164 109.898 360.614Z" fill="#FFBE55"/>
<path d="M85.6997 220.806C85.7536 221.082 85.8303 221.379 85.9066 221.676C88.7649 233.954 97.7662 267.087 101.844 277.795L101.845 277.816C102.441 279.312 104.309 280.519 106.663 281.043C112.063 282.277 119.947 279.961 120.192 269.268C120.229 268.088 120.155 266.807 119.991 265.422C118.93 256.795 115.061 209.042 114.487 204.442C113.934 199.84 112.824 193.142 110.354 192.388C98.0277 188.678 81.8052 203.626 85.6997 220.806Z" fill="#FFBE55"/>
<path d="M63.5327 271.421C71.4417 263.337 83.0366 266.532 78.1858 278.771C72.9976 291.858 56.7901 328.265 48.2545 354.092L47.6612 355.774C47.6612 355.774 43.7835 355.267 37.4971 352.936C41.3777 336.239 43.5235 307.652 52.185 287.435C54.9699 280.936 59.4336 275.611 63.5327 271.421Z" fill="#FFBE55"/>
<path d="M106.745 193.419C107.556 174.234 84.2637 187.913 73.1019 194.697C68.4035 197.552 66.8627 202.941 66.4238 207.972C65.9812 213.004 61.9301 264.781 61.0779 274.232C59.1554 295.539 77.1768 283.189 78.6835 277.245C82.4835 262.238 106.303 203.874 106.745 193.419Z" fill="#FFBE55"/>
<path d="M103.58 72.4354C103.629 73.88 103.685 79.5278 100.687 80.8763C97.6879 82.2457 95.7646 82.8203 95.8512 83.2837C95.8849 83.494 96.1812 84.488 96.4991 85.4622C97.1885 87.6425 98.2335 88.1841 98.2335 88.1841L98.6673 95.4145L93.2792 100.791L91.5195 102.543L88.875 100.12L80.2535 92.2622C80.2535 92.2622 83.8063 87.8821 81.3532 83.188C81.0023 82.5264 77.0736 78.1727 73.9403 73.7872C72.1168 71.208 70.5643 68.6395 70.1543 66.8045C69.0301 61.7848 68.0833 56.5007 70.9621 53.3487C73.8201 50.1964 93.5608 37.2371 97.5126 52.4431C97.513 52.4435 103.531 70.9908 103.58 72.4354Z" fill="#FFE3CA"/>
<path d="M80.2276 68.0489C80.2276 68.0489 84.9692 69.7614 84.4818 63.3221C84.4554 62.9702 84.7066 62.6554 85.0784 62.5449C86.4663 62.1343 89.5274 60.5107 87.9687 54.2937C87.8385 53.7749 88.218 53.2645 88.8018 53.1852C90.8152 52.9123 94.9738 52.3747 95.8971 52.4576C95.8971 52.4576 96.3536 52.4125 97.0371 52.5262C97.2597 52.5633 97.4526 52.6892 97.5538 52.8712C97.875 53.4469 99.7135 59.3152 99.7135 59.3152C99.7135 59.3152 101.905 57.6618 101.671 56.5463C101.436 55.4309 100.403 53.0653 100.521 52.4716C100.639 51.8775 102.325 51.1789 102.338 49.8429C102.365 46.8219 101.187 35.2581 92.0212 42.3681C90.8226 43.2979 89.7588 44.4163 88.6965 44.8071C87.3105 45.3168 85.7444 44.3338 82.7273 44.5466C78.5119 44.8434 60.3959 49.0833 66.1961 65.2045C71.9955 81.3256 81.5403 83.6255 81.5403 83.6255C81.5403 83.6255 78.4107 70.099 80.2276 68.0489Z" fill="#0B4870"/>
<path d="M80.2254 68.0492C80.2254 68.0492 79.3285 65.2782 77.0126 66.0766C73.9035 67.1488 74.1836 74.9622 80.9555 73.933C80.9555 73.9334 80.0494 70.7388 80.2254 68.0492Z" fill="#FFE3CA"/>
<path d="M123.404 190.974C123.404 190.974 89.2018 197.084 58.4121 191.366C59.9052 181.847 65.7461 154.95 66.1414 144.092L66.184 142.985C66.4286 136.053 66.5554 131.102 66.7094 130.899C67.0185 130.472 65.9225 108.35 67.738 99.6793C68.0706 98.0821 68.5113 96.949 69.072 96.4896C72.6765 93.4914 76.9131 90.3501 81.6415 88.0017C81.6415 88.0017 92.6589 99.8617 98.2805 86.7369C104.466 86.1796 107.615 87.4293 109.405 93.6246C119.307 128.044 123.404 190.974 123.404 190.974Z" fill="#2A94F4"/>
<path d="M102.901 86.8196C102.901 86.8196 113.147 86.9938 123.598 82.3584C129.43 89.2204 132.955 101.727 132.955 101.727C132.955 101.727 118.856 110.694 108.55 111.557C106.339 96.5245 102.901 86.8196 102.901 86.8196Z" fill="#2A94F4"/>
<path d="M121.07 108.775L122.292 111.198L119.924 109.875L101.574 90.7371L102.72 89.6371L121.07 108.775Z" fill="#0B4870"/>
<path d="M62.3115 130.825C62.3115 130.825 67.0531 147.196 79.3843 154.903C82.9763 157.148 87.4847 155.893 90.3078 152.733C98.7492 143.286 107.188 122.003 109.888 113.968C104.939 111.338 103.357 111.748 103.357 111.748C103.357 111.748 91.3851 128.38 84.5164 139.51L79.3862 130.557" fill="#FCD2B1"/>
<path d="M103.005 112.368C103.005 112.368 105.206 108.809 105.309 106.113C105.413 103.416 104.135 98.7545 106.753 96.3283C107.728 95.4253 111.137 94.0427 114.976 94.6782C120.686 95.6238 116.171 105.532 115.911 107.782C115.52 111.165 110.808 112.596 109.783 114.282C109.053 115.481 103.005 112.368 103.005 112.368Z" fill="#FCD2B1"/>
<path d="M71.8982 94.2279C71.8982 94.2279 59.1915 102.557 58.6484 116.737C58.2286 127.702 65.4732 143.699 65.4732 143.699C65.4732 143.699 78.0449 145.087 84.6434 134.805C82.689 129.81 80.9788 125.374 77.2235 119.478" fill="#2A94F4"/>
<path d="M156.203 7.33604L160.194 49.5706C160.302 50.722 161.371 51.5351 162.508 51.3333L191.647 46.1633C192.661 45.9835 193.367 45.0544 193.271 44.0281L189.28 1.79354C189.171 0.642105 188.103 -0.171015 186.965 0.0307971L157.827 5.2005C156.813 5.38066 156.106 6.30936 156.203 7.33604Z" fill="#FFBE55"/>
<path d="M158.356 8.02937L162.178 48.4667L191.109 43.333L187.288 2.896L158.356 8.02937Z" fill="#F7F7F7"/>
<path d="M185.275 6.63196L160.688 10.9944" stroke="#D3D3D3" stroke-width="0.5282" stroke-miterlimit="10" stroke-linecap="round" stroke-linejoin="round"/>
<path d="M185.649 10.4486L161.063 14.8111" stroke="#D3D3D3" stroke-width="0.5282" stroke-miterlimit="10" stroke-linecap="round" stroke-linejoin="round"/>
<path d="M176.845 16.6155L161.48 19.3418" stroke="#D3D3D3" stroke-width="0.5282" stroke-miterlimit="10" stroke-linecap="round" stroke-linejoin="round"/>
<path d="M176.812 20.0155L161.447 22.7418" stroke="#D3D3D3" stroke-width="0.5282" stroke-miterlimit="10" stroke-linecap="round" stroke-linejoin="round"/>
<path d="M176.771 23.4155L161.406 26.1418" stroke="#D3D3D3" stroke-width="0.5282" stroke-miterlimit="10" stroke-linecap="round" stroke-linejoin="round"/>
<path d="M187.713 38.5315L172.349 41.2578" stroke="#D3D3D3" stroke-width="0.5282" stroke-miterlimit="10" stroke-linecap="round" stroke-linejoin="round"/>
<path d="M175.562 175.565C177.402 174.698 178.77 173.092 180.078 171.534C181.369 169.996 182.659 168.459 183.95 166.921C184.46 166.314 184.993 165.651 185.05 164.861C182.886 164.685 181.492 167.497 179.328 167.664C180.336 164.098 181.783 160.657 183.627 157.443C184.077 156.659 184.566 155.744 184.247 154.898C181.908 155.792 179.939 157.457 178.235 159.292C177.038 160.582 175.946 161.971 174.977 163.44C172.121 167.765 170.351 172.729 169.146 177.771" fill="#FCD2B1"/>
<path d="M166.249 212.52L143.051 192.935C143.051 192.935 132.255 207.587 136.322 221.723C138.322 228.674 140.833 232.121 141.923 235.419C142.941 238.5 149.923 282.116 149.402 285.305C148.881 288.494 145.132 297.417 143.702 306.8C141.981 318.085 142.273 354.854 140.938 364.603C139.604 374.352 148.6 376.001 149.095 372.703C153.324 344.513 164.493 300.583 166.056 286.49C167.618 272.395 166.984 246.588 166.249 212.52Z" fill="#FCD2B1"/>
<path d="M150.662 363.649C150.662 363.649 148.502 373.878 149.083 375.181C149.664 376.485 151.754 380.274 153.894 381.644C156.14 383.081 161.113 384.789 161.511 385.412C161.909 386.036 160.694 385.267 159.985 385.824C158.153 387.265 154.67 387.299 152.59 386.956C145.847 385.842 146.693 385.202 142.764 384.724C142.086 384.642 140.829 385.645 138.953 384.685C137.077 383.724 136.166 381.988 136.327 380.355C136.605 377.537 138.186 375.215 139.312 373.131C140.438 371.047 141.231 361.511 141.231 361.511" fill="#FCD2B1"/>
<path d="M161.911 385.568C161.948 384.802 159.021 383.642 157.713 383.04C156.405 382.438 154.331 381.906 155.062 382.302C155.792 382.697 154.442 384.233 153.223 384.098C135.374 382.126 138.54 375.451 138.388 374.785C137.731 375.203 136.202 378.508 135.892 379.548C135.612 380.487 135.452 382.172 135.377 383.184C135.058 387.464 161.59 392.3 161.911 385.568Z" fill="#0B4870"/>
<path d="M197.928 387.569C197.429 387.018 192.056 386.144 189.535 385.09C187.134 384.086 184.225 380.858 183.659 379.488C183.093 378.119 183.223 371.178 183.295 368.264C183.798 348.191 187.504 299.138 188.041 287.391C188.974 266.972 186.325 245.897 178.475 213.119L149.242 190.67C149.242 190.67 141.055 205.899 143.796 220.461C145.386 228.909 152.389 230.209 153.573 233.492C154.757 236.775 172.443 289.715 172.443 289.715C172.443 289.715 169.002 301.16 168.802 313.699C168.631 324.402 173.482 356.689 174.382 368.99C174.488 371.394 174.901 377.147 174.194 378.979C173.326 381.224 171.116 383.86 171.227 386.691C171.291 388.332 171.468 387.936 173.54 388.579C175.611 389.222 177.775 389.987 178.486 389.958C182.608 389.787 183.781 389.837 190.896 389.835C193.09 389.834 196.24 391.406 197.927 389.682C198.581 389.014 198.426 388.121 197.928 387.569Z" fill="#FCD2B1"/>
<path d="M198.544 390.083C198.768 389.116 198.881 387.891 198.366 387.658C197.651 387.335 195.112 386.227 193.677 385.845C192.242 385.464 190.027 385.278 190.837 385.549C191.647 385.821 190.473 387.626 189.193 387.626C173.134 387.626 173.543 381.48 173.291 380.846C172.672 381.367 170.841 384.885 170.668 385.963C170.512 386.938 170.493 388.642 170.65 389.643C170.93 391.427 197.875 392.972 198.544 390.083Z" fill="#0B4870"/>
<path d="M143.662 190.471C141.678 192.651 134.608 204.44 134.532 214.036C134.458 223.632 137.869 229.786 138.175 231.789C140.418 246.447 142.586 264.126 142.586 265.085C142.586 266.045 150.901 271.595 162.084 270.891C182.746 269.589 190.78 264.174 190.78 264.174C190.78 264.174 189.801 228.666 186.616 211.157C185.019 202.382 178.069 188.261 178.069 188.261" fill="#0E538C"/>
<path d="M124.815 152.131C124.815 152.131 128.143 168.676 129.016 171.621C129.89 174.566 134.207 193.261 138.299 192.936C142.391 192.61 164.802 173.887 164.802 173.887L161.628 167.535L141.901 176.945C141.901 176.945 140.118 155.574 138.555 150.484" fill="#FFBE9D"/>
<path d="M138.178 129.197C138.178 129.197 131.637 129.894 128.32 132.434C119.861 138.91 126.407 162.416 126.407 162.416C126.407 162.416 125.99 163.671 131.668 163.352C137.347 163.034 141.899 161.417 141.899 161.417L140.258 142.156" fill="#FFBE55"/>
<path d="M169.443 85.8269C173.384 90.9416 172.604 98.1342 171.632 104.519C171.14 107.747 170.649 110.976 170.157 114.204C169.924 115.738 169.613 117.414 168.419 118.403C167.214 119.401 165.493 119.384 163.931 119.317C163.947 121.989 163.963 124.66 163.979 127.332C159.411 127.443 154.841 127.462 150.273 127.387C150.27 125.516 149.863 123.647 149.088 121.945C146.853 121.901 145.36 119.659 144.485 117.601C143.476 115.227 142.741 112.747 142.031 110.267C141.089 106.976 140.18 103.633 140.094 100.211C140.008 96.7883 140.822 93.2308 142.993 90.586C144.474 88.7825 146.493 87.503 148.562 86.4228C151.395 84.9433 154.798 83.7754 157.72 85.071" fill="#FFE3CA"/>
<path d="M164.712 110.19C164.172 107.504 164.21 105.989 165.089 104.2C165.38 103.607 165.765 103.049 166.29 102.68C167 102.181 167.944 102.083 168.731 102.427C169.245 102.651 169.667 103.069 169.958 103.571C170.889 99.963 171.085 96.1179 170.816 92.3712C170.389 86.4291 166.81 81.8359 161.583 79.6878C151.906 75.7099 138.004 79.6398 134.074 89.1448C131.106 96.3238 132.611 106.685 138.293 112.703C143.323 118.031 150.56 118.814 157.237 117.716C160.654 117.155 165.928 117.491 167.696 112.842C167.832 112.482 167.525 112.125 167.162 112.153C165.776 112.259 164.811 110.687 164.712 110.19Z" fill="#0B4870"/>
<path d="M165.46 97.5504C165.82 98.1144 165.735 98.8724 166.073 99.4496C166.64 100.419 167.394 100.769 168.412 101.242C170.054 102.004 169.67 104.397 169.623 105.467C170.861 104.642 171.063 102.399 171.362 101.259C171.698 99.9787 171.913 98.6655 172.285 97.3959C172.648 96.1608 173.275 94.9969 173.391 93.6976C173.793 89.2078 170.977 83.9306 167.575 81.4105C165.099 79.5759 161.319 79.6518 158.521 81.5177C157.343 82.3036 156.457 83.4907 155.935 84.8076C155.712 85.3734 155.557 86.032 155.835 86.5729" fill="#0B4870"/>
<path d="M186.011 123.208L176.601 164.573C176.344 165.7 177.104 166.807 178.248 166.972L207.54 171.181C208.56 171.328 209.522 170.666 209.75 169.661L219.161 128.296C219.418 127.169 218.658 126.062 217.513 125.898L188.221 121.689C187.202 121.542 186.24 122.203 186.011 123.208Z" fill="#0B4870"/>
<path d="M187.842 124.542L178.832 164.147L207.917 168.326L216.927 128.722L187.842 124.542Z" fill="#F7F7F7"/>
<path d="M213.847 131.64L189.131 128.088" stroke="#D3D3D3" stroke-width="0.5282" stroke-miterlimit="10" stroke-linecap="round" stroke-linejoin="round"/>
<path d="M213.009 135.383L188.293 131.831" stroke="#D3D3D3" stroke-width="0.5282" stroke-miterlimit="10" stroke-linecap="round" stroke-linejoin="round"/>
<path d="M202.72 138.487L187.274 136.267" stroke="#D3D3D3" stroke-width="0.5282" stroke-miterlimit="10" stroke-linecap="round" stroke-linejoin="round"/>
<path d="M201.622 141.704L186.177 139.485" stroke="#D3D3D3" stroke-width="0.5282" stroke-miterlimit="10" stroke-linecap="round" stroke-linejoin="round"/>
<path d="M200.526 144.921L185.08 142.702" stroke="#D3D3D3" stroke-width="0.5282" stroke-miterlimit="10" stroke-linecap="round" stroke-linejoin="round"/>
<path d="M206.192 162.703L190.746 160.484" stroke="#D3D3D3" stroke-width="0.5282" stroke-miterlimit="10" stroke-linecap="round" stroke-linejoin="round"/>
<path d="M174.487 155.888C174.487 155.888 187.874 188.262 193.682 188.262C197.907 188.262 208.267 158.377 208.267 158.377L201.722 155.277L194.422 167.792L187.031 144.449" fill="#FFE3CA"/>
<path d="M200.423 157.504C200.423 157.504 202.593 154.084 202.434 151.659C202.374 150.734 201.825 146.333 202.283 145.468C202.742 144.603 203.843 141.771 204.471 141.221C205.1 140.67 207.426 139.785 207.994 140.178C208.563 140.571 209.366 139.362 210.214 138.92C215.703 136.056 219.539 147.701 213.741 152.315C212.695 153.148 211.814 154.972 210.09 156.015C209.239 156.53 208.773 157.43 207.961 158.957" fill="#FFE3CA"/>
<path d="M181.227 186.625C180.604 185.703 179.165 184.6 178.65 183.585C177.411 181.149 176.328 170.893 176.755 168.273C177.211 165.465 179.695 163.954 180.816 157.703C182.26 149.651 178.96 143.392 177.115 140.712C174.508 136.921 176.054 136.943 175.162 132.299C175.001 131.462 174.813 130.57 174.241 129.987C173.678 129.411 169.791 127.634 169.028 127.516C161.78 126.393 157.521 127.27 150.195 127.591C146.571 127.749 142.952 128.173 139.393 128.958C135.455 129.827 132.024 130.872 131.214 136.22C129.962 144.492 131.015 152.854 133.528 160.699C135.194 165.899 145.138 183.887 142.674 187.369C142.111 188.165 140.701 189.676 140.531 190.668C139.907 194.304 148.116 195.583 151.629 195.871C156.982 196.311 163.125 196.016 168.49 195.765C172.555 195.575 181.447 194.155 182.079 189.129C182.203 188.142 181.715 187.346 181.227 186.625Z" fill="#FFBE55"/>
<path d="M162.175 127.018C165.661 127.199 175.811 125.417 181.451 131.32C186.176 136.266 188.883 149.232 190.785 154.49C186.052 159.319 181.491 163.213 174.319 161.645C174.049 161.444 170.49 150.237 167.899 149.24" fill="#FFBE55"/>
<path d="M167.165 112.154C167.165 112.154 179.187 127.433 172.419 144.451C164.139 165.269 163.403 166.372 172.419 178.643C181.435 190.915 173.436 205.98 160.496 209.885C147.556 213.791 114.325 211.907 116.334 182.754C117.156 170.833 125.167 168.983 121.88 157.062C118.593 145.14 117.884 137.741 123.99 124.997C130.096 112.254 123.726 77.1168 156.386 78.3449C156.386 78.3445 150.419 115.96 167.165 112.154Z" fill="#0B4870"/>
</svg>
