<?xml version="1.0" encoding="UTF-8" standalone="no"?>
<!-- Created with Inkscape (http://www.inkscape.org/) -->

<svg
   version="1.1"
   id="svg725"
   xml:space="preserve"
   viewBox="0 0 1066.6667 1066.6667"
   sodipodi:docname="disco-girl-2-pdv.svg"
   inkscape:version="1.1.2 (b8e25be833, 2022-02-05)"
   xmlns:inkscape="http://www.inkscape.org/namespaces/inkscape"
   xmlns:sodipodi="http://sodipodi.sourceforge.net/DTD/sodipodi-0.dtd"
   xmlns="http://www.w3.org/2000/svg"
   xmlns:svg="http://www.w3.org/2000/svg"><defs
     id="defs729"><clipPath
       clipPathUnits="userSpaceOnUse"
       id="clipPath739"><path
         d="M 0,800 H 800 V 0 H 0 Z"
         id="path737" /></clipPath></defs><sodipodi:namedview
     id="namedview727"
     pagecolor="#ffffff"
     bordercolor="#666666"
     borderopacity="1.0"
     inkscape:pageshadow="2"
     inkscape:pageopacity="0.0"
     inkscape:pagecheckerboard="0"
     showgrid="false"
     inkscape:zoom="0.77906244"
     inkscape:cx="533.33337"
     inkscape:cy="533.33337"
     inkscape:window-width="1920"
     inkscape:window-height="1018"
     inkscape:window-x="-8"
     inkscape:window-y="-8"
     inkscape:window-maximized="1"
     inkscape:current-layer="g731" /><g
     id="g731"
     inkscape:groupmode="layer"
     inkscape:label="disco-girl-2-pdv"
     transform="matrix(1.3333333,0,0,-1.3333333,0,1066.6667)"><g
       id="g733"><g
         id="g735"
         clip-path="url(#clipPath739)"><path
           d="m 562.594,459.741 c 1.815,-0.968 3.621,-1.858 5.413,-2.661 l 13.194,-3.735 c 0.766,1.075 3.866,8.609 6.723,18.173 l 8.959,-0.993 c 13.209,-1.493 33.694,4.229 34.346,9.702 0.485,4.061 -1.545,4.562 -7.214,1.742 -3.79,-1.879 -4.593,-1.698 -6.715,1.001 -1.296,1.636 -2.168,4.092 -2.001,5.471 0.394,3.289 9.715,10.066 16.43,11.953 7.292,2.053 6.868,4.29 -0.993,5.221 -5.22,0.621 -8.086,-0.258 -13.694,-4.229 -3.896,-2.759 -9.155,-7.533 -11.694,-10.451 -5.238,-6.01 -7.147,-6.314 -11.452,-1.494 l -1.743,1.987 c 0.599,4.764 0.935,9.112 0.617,12.782 l -39.459,-18.983 z"
           style="fill:#dee2a2;fill-opacity:1;fill-rule:nonzero;stroke:none"
           id="path741" /><path
           d="m 592.77,504.21 c -0.082,0.93 -0.203,1.817 -0.374,2.656 -1.455,7.176 -12.582,3.342 -17.174,3.979 -9.406,1.306 -18.367,7.72 -26.587,13.816 l 4.676,-39.434 z"
           style="fill:#e8b472;fill-opacity:1;fill-rule:nonzero;stroke:none"
           id="path743" /><path
           d="m 544.361,471.653 c 6.131,-4.673 12.241,-8.72 18.233,-11.912 l -9.283,25.486 z"
           style="fill:#e6f0b6;fill-opacity:1;fill-rule:nonzero;stroke:none"
           id="path745" /><path
           d="m 521.466,181.773 c 0.045,19.265 -0.191,43.412 -0.751,53.765 -0.66,12.411 -1.734,20.287 -6.358,34.173 l -44.485,-61.448 c -2.025,-9.557 -5.767,-23.701 -9.643,-35.948 -3.549,-11.219 -7.458,-22.805 -11.27,-34.299 l 73.863,-11.995 c -1.049,15.218 -1.415,32.778 -1.356,55.752"
           style="fill:#8fd5ed;fill-opacity:1;fill-rule:nonzero;stroke:none"
           id="path747" /><path
           d="m 453.006,49.342 c 1.865,7.693 2.789,8.654 11.46,8.458 6.336,-0.137 6.7,-0.591 13.436,-12.937 3.797,-6.95 8.027,-13.142 9.459,-13.696 13.664,0.721 20.653,-1.136 37.34,-0.741 5.533,3.909 3.608,10.753 -4.978,17.674 -4.48,3.607 -1.327,6.123 6.965,5.471 4.804,-0.372 7.381,0.144 7.472,1.501 0.069,1.137 -1.273,8.199 -2.986,15.68 -4.379,19.068 -6.963,35.116 -8.352,55.269 l -73.863,11.995 C 441.883,116.681 435.145,95.667 431.66,77.903 l 1.193,-8.09 c 4,0.935 11.733,6.846 11.196,2.673 -2.456,-19.097 -9.141,-29.92 -6.715,-30.117 11.02,-0.272 15.521,-8.268 15.672,6.973"
           style="fill:#6fafdd;fill-opacity:1;fill-rule:nonzero;stroke:none"
           id="path749" /><path
           d="m 510.77,279.826 -45.426,-30.964 c 0.831,-1.872 1.547,-3.522 2.107,-4.867 5.867,-14.081 5.76,-14.051 3.731,-28.617 -0.258,-1.856 -0.709,-4.286 -1.31,-7.115 l 44.485,61.448 c -1.013,3.046 -2.199,6.381 -3.587,10.115"
           style="fill:#bbebe3;fill-opacity:1;fill-rule:nonzero;stroke:none"
           id="path751" /><path
           d="m 513.719,499.384 39.592,-14.157 -4.676,39.434 c -6.697,4.966 -12.905,9.72 -18.461,11.33 -6.559,1.898 -15.402,9.263 -25.016,19.115 l -15.01,-29.666 c 7.416,-8.709 15.358,-17.601 23.571,-26.056"
           style="fill:#f3bb73;fill-opacity:1;fill-rule:nonzero;stroke:none"
           id="path753" /><path
           d="m 490.148,525.44 15.01,29.666 c -11.949,12.247 -25.089,28.332 -36.521,42.545 l 9.189,-57.364 c 3.898,-4.806 8.022,-9.795 12.322,-14.847"
           style="fill:#f7a559;fill-opacity:1;fill-rule:nonzero;stroke:none"
           id="path755" /><path
           d="m 513.719,499.384 c 9.969,-10.261 20.334,-19.876 30.642,-27.731 l 8.95,13.574 z"
           style="fill:#f2e69e;fill-opacity:1;fill-rule:nonzero;stroke:none"
           id="path757" /><path
           d="m 409.693,685.839 c 1.434,-6.829 0.205,-11.588 -3.978,-12.194 0.137,6.464 -1.319,15.293 -2.243,21.902 3.956,-2.402 5.426,-5.904 6.221,-9.708 m -73.431,-29.118 c 0.577,-6.245 -1.758,-14.157 -10.958,-6.473 -0.153,0.129 -0.307,0.276 -0.462,0.432 l -1.029,-1.498 c 0.159,-0.147 0.322,-0.292 0.491,-0.434 10.011,-8.397 14.369,0.992 14.187,7.223 3.335,-0.531 5.365,-3.283 7.472,-4.98 1.688,-2.446 3.639,-8.617 4.742,-13.975 l 116.748,-37.893 c -8.347,10.389 -15.71,19.649 -20.918,25.48 -8.746,9.792 -18.765,13.868 -34.847,13.944 -22.298,0.105 -21.101,-0.47 -18.174,6.973 1.378,3.516 4.698,10.215 7.464,14.93 2.524,3.13 4.237,8.458 4.237,11.201 5.146,1.85 8.625,5.442 5.723,14.688 -2.329,7.382 -4.768,9.67 -8.216,12.444 -0.478,3.987 -0.22,10.913 0.75,12.945 3.167,6.669 12.928,10.193 11.202,15.688 -4.189,13.249 -9.675,23.333 -16.033,30.656 L 331.213,659.95 c 1.674,-1.317 3.461,-2.455 5.049,-3.229"
           style="fill:#fb6507;fill-opacity:1;fill-rule:nonzero;stroke:none"
           id="path759" /><path
           d="m 496.07,316.934 c -8.052,10.838 -21.283,35.617 -33.398,61.648 l -106.077,-34.785 43.829,-12.293 1.555,16.548 c 8.635,-8.355 15.592,-15.91 21.371,-22.979 l 78.318,-21.967 c -1.703,4.234 -3.563,8.823 -5.598,13.828"
           style="fill:#e8f8c4;fill-opacity:1;fill-rule:nonzero;stroke:none"
           id="path761" /><path
           d="m 398.685,235.271 c 0.677,7.782 1.35,14.066 1.801,15.947 0.666,2.751 0.136,7.132 -1.486,11.202 -3.319,8.283 -3.379,18.893 0.243,56.5 l 1.181,12.584 -43.829,12.293 z"
           style="fill:#ddf5db;fill-opacity:1;fill-rule:nonzero;stroke:none"
           id="path763" /><path
           d="m 501.668,303.106 -78.318,21.967 c 12.4,-15.169 19.35,-28.08 25.677,-41.744 5.713,-11.446 12.356,-25.542 16.317,-34.467 l 45.426,30.964 c -2.381,6.399 -5.36,13.973 -9.102,23.28"
           style="fill:#ddf5db;fill-opacity:1;fill-rule:nonzero;stroke:none"
           id="path765" /><path
           d="m 323.813,649.182 1.029,1.498 c -1.413,1.423 -2.842,3.924 -3.649,6.799 l 0.348,-5.608 c 0.621,-0.957 1.373,-1.862 2.272,-2.689"
           style="fill:#f55a00;fill-opacity:1;fill-rule:nonzero;stroke:none"
           id="path767" /><path
           d="m 322.076,668.165 c 0.939,0.326 2.023,0.734 2.985,1 -0.543,-2.696 2.544,-6.375 6.152,-9.215 l 67.428,98.122 c -9.52,10.966 -20.996,15.735 -33.002,15.635 -17.038,-0.142 -35.121,-10.048 -50.032,-25.976 l 5.149,-83.18 c 0.232,1.252 0.655,2.473 1.32,3.614"
           style="fill:#f55a00;fill-opacity:1;fill-rule:nonzero;stroke:none"
           id="path769" /><path
           d="m 430.604,71.994 c -0.341,-2.14 0.66,-2.553 2.249,-2.181 l -1.193,8.09 c -0.393,-2.011 -0.75,-3.985 -1.056,-5.909"
           style="fill:#98bac4;fill-opacity:1;fill-rule:nonzero;stroke:none"
           id="path771" /><path
           d="m 355.938,51.335 13.437,-5.48 -4.979,-13.186 C 358.924,17.678 358.423,11.857 362.152,6.521 368.518,-2.551 388.345,-5.347 399.243,1.3 l 5.73,3.486 -0.75,20.16 c -1.039,24.419 -0.297,31.308 3.735,32.362 2.251,0.59 11.437,4.978 10.951,8.965 -0.356,2.879 -10.193,13.111 -11.201,26.381 -0.684,9.002 -1.498,18.433 -2.393,27.736 L 353.186,52.404 Z"
           style="fill:#98bac4;fill-opacity:1;fill-rule:nonzero;stroke:none"
           id="path773" /><path
           d="m 317.46,512.408 c 0.88,8.408 1.398,17.463 1.587,27.47 l -8.309,1.492 z"
           style="fill:#ffe157;fill-opacity:1;fill-rule:nonzero;stroke:none"
           id="path775" /><path
           d="m 435.785,448.576 c -0.869,4.039 -1.226,7.282 -0.953,9.497 0.703,-0.823 3.661,-1.348 6.86,-1.681 l 6.206,8.212 c -2.449,6.846 -6.36,17.734 -11.823,32.795 -2.317,6.408 -4.345,12.804 -4.796,22.328 l -97.695,17.541 c 7.712,-40.058 3.929,-71.979 3.929,-71.979 0,0 -3.395,-10.641 2.494,-10.451 l 6.472,0.242 c -3.563,-8.29 -6.957,-16.563 -9.87,-25.174 l 19.986,-86.109 z"
           style="fill:#ffe157;fill-opacity:1;fill-rule:nonzero;stroke:none"
           id="path777" /><path
           d="m 451.021,455.838 c 0,0 -1.025,2.902 -3.123,8.766 l -6.206,-8.212 c 4.433,-0.462 9.329,-0.554 9.329,-0.554"
           style="fill:#f9f393;fill-opacity:1;fill-rule:nonzero;stroke:none"
           id="path779" /><path
           d="m 462.672,378.582 c -12.33,26.495 -23.504,54.284 -26.887,69.994 l -79.19,-104.779 z"
           style="fill:#f9f393;fill-opacity:1;fill-rule:nonzero;stroke:none"
           id="path781" /><path
           d="m 431.347,529.519 c 2.97,14.232 12.202,47.208 11.201,53.763 1.179,1.617 15.215,-18.252 35.278,-42.995 l -9.189,57.364 c -0.252,0.315 -0.504,0.627 -0.755,0.94 L 331.087,548.779 c 0.942,-3.896 1.771,-7.739 2.497,-11.511 l 97.695,-17.541 c -0.14,2.937 -0.131,6.167 0.068,9.792"
           style="fill:#fdb53f;fill-opacity:1;fill-rule:nonzero;stroke:none"
           id="path783" /><path
           d="m 319.047,539.878 c 0.016,0.853 0.031,1.711 0.042,2.577 0.436,0.829 0.85,1.628 1.255,2.413 l -9.606,-3.498 z"
           style="fill:#fdb53f;fill-opacity:1;fill-rule:nonzero;stroke:none"
           id="path785" /><path
           d="m 467.453,599.123 -116.748,37.893 c 0.868,-4.218 1.212,-7.933 0.488,-8.928 -0.5,-0.682 -6.025,-0.484 -11.701,-0.242 -7.466,-0.091 -14.292,-2.042 -20.051,-4.46 l -8.703,-82.016 9.606,3.498 c 4.117,7.987 6.608,13.806 6.719,18.497 1.531,-4.916 2.864,-9.79 4.024,-14.586 l 136.795,49.812 c -0.144,0.178 -0.286,0.355 -0.429,0.532"
           style="fill:#ff9b13;fill-opacity:1;fill-rule:nonzero;stroke:none"
           id="path787" /><path
           d="m 343.528,221.549 c 0.03,-0.683 0.058,-1.376 0.086,-2.082 l 53.328,-7.719 c 0.465,7.562 1.105,16.204 1.743,23.523 l -42.09,108.526 z"
           style="fill:#dff3bd;fill-opacity:1;fill-rule:nonzero;stroke:none"
           id="path789" /><path
           d="m 342.493,56.557 10.693,-4.153 52.129,67.986 c -0.622,6.47 -1.283,12.879 -1.965,19.039 l -59.993,-9.366 z"
           style="fill:#adcfb9;fill-opacity:1;fill-rule:nonzero;stroke:none"
           id="path791" /><path
           d="m 343.624,219.203 56.723,-55.49 c -0.539,3.852 -1.076,7.413 -1.605,10.588 -1.287,7.775 -2.41,16.999 -2.485,20.66 -0.051,3.077 0.234,9.418 0.685,16.787 l -53.328,7.719 z"
           style="fill:#c0eac6;fill-opacity:1;fill-rule:nonzero;stroke:none"
           id="path793" /><path
           d="m 343.485,140.946 -0.128,-10.883 59.993,9.366 c -0.975,8.783 -1.992,17.055 -3.003,24.284 l -56.723,55.49 c 0.612,-16.26 0.349,-38.969 -0.139,-78.257"
           style="fill:#bee2ba;fill-opacity:1;fill-rule:nonzero;stroke:none"
           id="path795" /><path
           d="m 288.042,505.409 c 0.393,0.404 0.788,0.808 1.179,1.206 -3.13,-49.245 -23.947,-86.799 -40.019,-132.634 l 10.955,-3.078 c 35.005,65.667 52.204,92.765 57.303,141.505 l -6.722,28.962 z"
           style="fill:#ffdd4d;fill-opacity:1;fill-rule:nonzero;stroke:none"
           id="path797" /><path
           d="m 336.609,429.906 c -7.111,-21.022 -11.341,-44.071 -8.062,-74.388 0.108,-1.016 0.216,-2.351 0.322,-3.928 l 27.726,-7.793 z"
           style="fill:#ffdd4d;fill-opacity:1;fill-rule:nonzero;stroke:none"
           id="path799" /><path
           d="m 235.208,322.906 c 3.464,6.861 6.803,13.382 10.022,19.603 l -4.245,5.324 c -2.185,-7.974 -4.144,-16.252 -5.777,-24.927"
           style="fill:#f0e096;fill-opacity:1;fill-rule:nonzero;stroke:none"
           id="path801" /><path
           d="m 328.869,351.59 c 0.492,-7.354 0.929,-20.061 0.929,-31.17 0,-21.706 0.417,-26.875 4.979,-45.807 5.401,-22.441 7.842,-32.727 8.751,-53.064 l 13.067,122.248 z"
           style="fill:#f6ee98;fill-opacity:1;fill-rule:nonzero;stroke:none"
           id="path803" /><path
           d="m 240.985,347.833 4.245,-5.324 c 5.3,10.241 10.27,19.659 14.927,28.394 l -10.955,3.078 c -2.945,-8.396 -5.728,-17.073 -8.217,-26.148"
           style="fill:#f6ee98;fill-opacity:1;fill-rule:nonzero;stroke:none"
           id="path805" /><path
           d="m 316.096,665.922 c 1.402,0.576 2.539,0.886 3.979,1.501 -1.485,-4.12 -1.786,-10.547 1.466,-15.552 l -0.348,5.608 c -0.629,2.244 -0.876,4.712 -0.437,7.072 l -5.149,83.18 c -10.704,-11.435 -19.774,-25.972 -25.643,-42.233 -5.495,-15.243 -38.145,-27.877 -30.159,-66.658 l 52.104,6.321 c -1.386,10.128 -1.235,19.59 4.187,20.761"
           style="fill:#fb6800;fill-opacity:1;fill-rule:nonzero;stroke:none"
           id="path807" /><path
           d="m 266.466,530.116 c -7.496,-13.178 -16.309,-25.002 -27.279,-34.702 -12.498,-11.05 -25.155,-33.68 -46.3,-28.633 -1.825,-4.661 -0.996,-14.429 -0.996,-14.429 -7.31,-4.654 -10.292,-4.654 -18.916,0.993 -2.805,2.66 -8.558,6.828 -12.699,9.208 -2.623,1.508 -4.642,2.482 -6.519,3.006 l 23.382,-32.684 c 2.213,0.132 4.342,0.393 6.294,0.802 l 8.712,2.486 c 2.716,-22.267 21.406,-24.389 21.406,-24.389 0,0 20.702,32.65 46.546,62.98 9.124,10.709 18.825,21.316 27.945,30.655 l 22.696,35.961 z"
           style="fill:#feba1a;fill-opacity:1;fill-rule:nonzero;stroke:none"
           id="path809" /><path
           d="m 319.441,623.386 c -0.981,-0.413 -1.936,-0.837 -2.853,-1.27 -1.062,4.76 -3.462,14.159 -4.679,23.045 l -52.104,-6.321 c 0.351,-1.71 0.776,-3.466 1.292,-5.28 11.436,-24.54 16.688,-46.844 21.902,-67.952 -0.361,-0.918 -0.725,-1.833 -1.091,-2.745 l 28.83,-21.493 z"
           style="fill:#ff8500;fill-opacity:1;fill-rule:nonzero;stroke:none"
           id="path811" /><path
           d="m 281.908,562.863 c -4.611,-11.497 -9.631,-22.529 -15.442,-32.747 l 44.272,11.254 z"
           style="fill:#fe9400;fill-opacity:1;fill-rule:nonzero;stroke:none"
           id="path813" /><path
           d="m 146.338,465.538 c -7.734,-1.667 -7.949,-4.122 -0.492,-5.472 6.859,-1.25 16.722,-6.972 17.424,-10.209 0.295,-1.364 -0.364,-3.97 -1.494,-5.721 -1.86,-2.888 -2.524,-3.016 -6.471,-1.5 -5.909,2.273 -7.833,1.515 -6.973,-2.487 0.992,-4.581 16.258,-8.021 28.807,-7.274 l -23.382,32.684 c -2.384,0.665 -4.541,0.602 -7.419,-0.021"
           style="fill:#ffab15;fill-opacity:1;fill-rule:nonzero;stroke:none"
           id="path815" /></g></g></g></svg>
