<?xml version="1.0" encoding="UTF-8" standalone="no"?>
<!-- Created with Inkscape (http://www.inkscape.org/) -->

<svg
   version="1.1"
   id="svg1943"
   xml:space="preserve"

   viewBox="0 0 1066.6667 1066.6667"
   sodipodi:docname="fashionable-woman.silhouette-vector-pdv.svg"
   inkscape:version="1.1.2 (b8e25be833, 2022-02-05)"
   xmlns:inkscape="http://www.inkscape.org/namespaces/inkscape"
   xmlns:sodipodi="http://sodipodi.sourceforge.net/DTD/sodipodi-0.dtd"
   xmlns="http://www.w3.org/2000/svg"
   xmlns:svg="http://www.w3.org/2000/svg"><defs
     id="defs1947"><clipPath
       clipPathUnits="userSpaceOnUse"
       id="clipPath1957"><path
         d="M 0,800 H 800 V 0 H 0 Z"
         id="path1955" /></clipPath></defs><sodipodi:namedview
     id="namedview1945"
     pagecolor="#ffffff"
     bordercolor="#666666"
     borderopacity="1.0"
     inkscape:pageshadow="2"
     inkscape:pageopacity="0.0"
     inkscape:pagecheckerboard="0"
     showgrid="false"
     inkscape:zoom="0.77906244"
     inkscape:cx="533.33337"
     inkscape:cy="533.33337"
     inkscape:window-width="1920"
     inkscape:window-height="1018"
     inkscape:window-x="-8"
     inkscape:window-y="-8"
     inkscape:window-maximized="1"
     inkscape:current-layer="g1949" /><g
     id="g1949"
     inkscape:groupmode="layer"
     inkscape:label="fashionable-woman.silhouette-vector-pdv"
     transform="matrix(1.3333333,0,0,-1.3333333,0,1066.6667)"><g
       id="g1951"><g
         id="g1953"
         clip-path="url(#clipPath1957)"><path
           d="m 270.095,486.657 0.021,0.183 c -0.021,-0.064 -0.03,-0.125 -0.021,-0.183"
           style="fill:#ff3a7d;fill-opacity:1;fill-rule:nonzero;stroke:none"
           id="path1959" /><path
           d="m 264.615,494.358 c 1.872,-2.113 3.923,-2.874 6.001,-3.234 l 0.527,4.522 c -3.085,0.62 -7.908,2.646 -6.528,-1.288"
           style="fill:#ff3a7d;fill-opacity:1;fill-rule:nonzero;stroke:none"
           id="path1961" /><path
           d="m 263.317,500.832 v -0.827 c 2.139,-2.068 5.07,-2.099 7.849,-2.602 l -0.324,5.067 c -2.574,0.054 -5.096,-0.367 -7.525,-1.638"
           style="fill:#ff3a7d;fill-opacity:1;fill-rule:nonzero;stroke:none"
           id="path1963" /><path
           d="m 476.267,219.133 c -1.058,-5.438 -1.12,-10.862 4.19,-13.577 8.608,-5.033 15.739,4.925 20.044,11.266 0.275,3.048 0.056,6 -0.487,8.883 l -17.516,6.382 z"
           style="fill:#ffd8ff;fill-opacity:1;fill-rule:nonzero;stroke:none"
           id="path1965" /><path
           d="m 388.416,215.089 0.254,6.411 c -0.393,-2.156 -0.437,-4.29 -0.254,-6.411"
           style="fill:#ff58c1;fill-opacity:1;fill-rule:nonzero;stroke:none"
           id="path1967" /><path
           d="m 386.238,160.28 0.713,17.94 c -4.156,-5.796 -6.289,-12.993 -0.713,-17.94"
           style="fill:#ff58c1;fill-opacity:1;fill-rule:nonzero;stroke:none"
           id="path1969" /><path
           d="m 388.884,222.54 c -0.081,-0.347 -0.151,-0.692 -0.214,-1.04 l -0.254,-6.411 c 0.89,-10.347 7.179,-20.312 4.621,-30.42 -2.099,-1.687 -4.283,-3.937 -6.086,-6.449 l -0.713,-17.94 c 0.356,-0.315 0.741,-0.623 1.162,-0.919 h 6.171 c 7.906,3.398 16.707,4.598 24.249,9.061 2.828,3.291 4.311,7.006 5.144,10.93 l -32.645,62.252 c -0.034,-6.314 -0.432,-12.666 -1.435,-19.064"
           style="fill:#ff8bdc;fill-opacity:1;fill-rule:nonzero;stroke:none"
           id="path1971" /><path
           d="m 390.319,241.604 32.645,-62.252 c 2.191,10.313 -0.105,22.086 5.731,31.504 3.949,-2.045 10.084,-9.693 12.751,-2.828 5.941,6.944 -4.561,13.01 -7.816,18.443 -3.183,5.957 -8.767,8.723 -15.055,9.96 -0.121,1.09 -0.162,2.175 -0.14,3.252 l -28.115,3.334 c 0.001,-0.472 0.001,-0.941 -10e-4,-1.413"
           style="fill:#ffaaef;fill-opacity:1;fill-rule:nonzero;stroke:none"
           id="path1973" /><path
           d="m 465.935,234.05 c 3.771,-2.321 7.854,-4.231 12.378,-5.553 -0.387,-2.717 -1.403,-6.044 -2.046,-9.364 l 6.231,12.954 z"
           style="fill:#ffaaef;fill-opacity:1;fill-rule:nonzero;stroke:none"
           id="path1975" /><path
           d="m 500.014,225.705 c -0.95,5.032 -2.888,9.868 -4.932,14.677 l -12.584,-8.295 z"
           style="fill:#ffe6ff;fill-opacity:1;fill-rule:nonzero;stroke:none"
           id="path1977" /><path
           d="m 270.116,486.84 -0.021,-0.183 c 0.059,-0.4 0.819,-0.666 1.972,-0.817 l -0.177,2.24 c -1.113,-0.496 -1.658,-0.906 -1.774,-1.24"
           style="fill:#ff477d;fill-opacity:1;fill-rule:nonzero;stroke:none"
           id="path1979" /><path
           d="m 271.143,495.646 -0.527,-4.522 c 0.347,-0.061 0.696,-0.11 1.045,-0.151 l -0.369,4.644 c -0.049,0.009 -0.099,0.019 -0.149,0.029"
           style="fill:#ff477d;fill-opacity:1;fill-rule:nonzero;stroke:none"
           id="path1981" /><path
           d="m 465.935,234.05 16.563,-1.963 -15.957,44.621 c -0.643,-0.215 -1.283,-0.445 -1.92,-0.699 -1.005,1.185 -1.991,2.386 -2.962,3.595 l -28.35,-14.343 c 10.618,-10.689 19.822,-23.331 32.626,-31.211"
           style="fill:#ffb1f0;fill-opacity:1;fill-rule:nonzero;stroke:none"
           id="path1983" /><path
           d="m 390.32,243.017 28.115,-3.334 c 0.131,7.048 3.011,13.794 5.169,20.668 l -33.288,-16.84 c 0.002,-0.164 0.003,-0.328 0.004,-0.494"
           style="fill:#ffb1f0;fill-opacity:1;fill-rule:nonzero;stroke:none"
           id="path1985" /><path
           d="m 403.533,291.086 -16.27,1.982 c 0.065,-2.299 0.168,-4.601 0.301,-6.907 z"
           style="fill:#ff439c;fill-opacity:1;fill-rule:nonzero;stroke:none"
           id="path1987" /><path
           d="m 387.564,286.161 c 0.769,-13.379 2.479,-26.825 2.727,-40.438 l 13.242,45.363 z"
           style="fill:#ff5ebb;fill-opacity:1;fill-rule:nonzero;stroke:none"
           id="path1989" /><path
           d="m 390.291,245.723 c 0.013,-0.738 0.022,-1.475 0.025,-2.212 l 33.288,16.84 c 1.203,3.836 2.181,7.711 2.326,11.703 2.567,-2.116 5.008,-4.408 7.379,-6.793 l 28.35,14.343 c -0.659,0.822 -1.308,1.65 -1.953,2.484 l -56.173,8.998 z"
           style="fill:#ff9bd6;fill-opacity:1;fill-rule:nonzero;stroke:none"
           id="path1991" /><path
           d="m 495.082,240.382 c -2.796,6.577 -5.783,13.109 -6.693,20.041 5.851,1.972 12.164,0.791 18.202,1.306 0.738,4.303 3.815,13.711 -3.005,14.449 -12.358,2.161 -25.156,4.522 -37.045,0.53 l 15.957,-44.621 z"
           style="fill:#ffdcff;fill-opacity:1;fill-rule:nonzero;stroke:none"
           id="path1993" /><path
           d="M 370.458,392.994 336,369.314 c 4.261,-1.662 8.698,-2.847 13.358,-3.251 -2.088,-24.046 22.182,-40.679 38.193,-57.854 -0.378,-5.042 -0.429,-10.09 -0.288,-15.141 l 16.27,-1.982 z"
           style="fill:#ff5b84;fill-opacity:1;fill-rule:nonzero;stroke:none"
           id="path1995" /><path
           d="m 302.247,397.216 c 0.022,-0.46 0.043,-0.921 0.07,-1.383 3.7,-5.798 13.944,-5.957 12.566,-14.85 6.645,-4.307 13.605,-8.733 21.117,-11.669 l 34.458,23.68 z"
           style="fill:#ff507d;fill-opacity:1;fill-rule:nonzero;stroke:none"
           id="path1997" /><path
           d="m 448.998,369.914 c 4.239,0.739 8.506,1.743 12.509,1.848 5.887,-2.731 11.658,0.274 16.122,4.134 -0.827,5.778 -1.529,11.59 -2.173,17.419 l -31.993,7.426 z"
           style="fill:#ffd7d4;fill-opacity:1;fill-rule:nonzero;stroke:none"
           id="path1999" /><path
           d="m 432.708,371.207 c 4.906,-2.813 10.573,-2.295 16.29,-1.293 l -5.535,30.827 z"
           style="fill:#ffabbc;fill-opacity:1;fill-rule:nonzero;stroke:none"
           id="path2001" /><path
           d="m 459.706,282.088 c -13.908,17.961 -24.575,38.304 -36.622,57.484 -0.253,0.914 -0.533,1.901 -0.825,2.939 l -18.726,-51.425 z"
           style="fill:#ffabbc;fill-opacity:1;fill-rule:nonzero;stroke:none"
           id="path2003" /><path
           d="m 370.458,392.994 33.075,-101.908 18.726,51.425 c -3.168,11.292 -7.608,28.888 7.156,31.232 1.051,-1.051 2.15,-1.884 3.293,-2.536 l 10.755,29.534 z"
           style="fill:#ff9190;fill-opacity:1;fill-rule:nonzero;stroke:none"
           id="path2005" /><path
           d="m 475.456,393.315 c -0.95,8.62 -1.772,17.277 -2.693,25.92 l -29.3,-18.494 z"
           style="fill:#ffd3ca;fill-opacity:1;fill-rule:nonzero;stroke:none"
           id="path2007" /><path
           d="m 270.842,502.47 0.324,-5.067 c 0.067,-0.012 0.135,-0.026 0.202,-0.038 l 0.715,5.043 c -0.415,0.031 -0.829,0.054 -1.241,0.062"
           style="fill:#ff227d;fill-opacity:1;fill-rule:nonzero;stroke:none"
           id="path2009" /><path
           d="m 381.483,483.878 -78.006,-64.854 c -1.11,-7.098 -1.589,-14.348 -1.23,-21.808 l 68.211,-4.222 z"
           style="fill:#ff5e7d;fill-opacity:1;fill-rule:nonzero;stroke:none"
           id="path2011" /><path
           d="m 472.763,419.235 c -2.054,19.295 -4.59,38.515 -10.095,57.066 l -19.205,-75.56 z"
           style="fill:#ffb097;fill-opacity:1;fill-rule:nonzero;stroke:none"
           id="path2013" /><path
           d="m 271.292,495.617 0.369,-4.644 c 2.066,-0.251 4.135,-0.263 6.062,-0.961 -2.737,-0.752 -4.62,-1.392 -5.833,-1.932 l 0.177,-2.24 c 3.507,-0.455 10.642,0.172 12.706,1.441 9.943,1.742 -6.748,-10.599 1.94,-10.271 4.908,6.403 11.754,9.328 19.455,10.138 1.073,1.69 2.222,3.315 3.428,4.891 l -36.075,4.095 c -0.107,-0.73 -1.018,-0.746 -2.229,-0.517"
           style="fill:#ff527d;fill-opacity:1;fill-rule:nonzero;stroke:none"
           id="path2015" /><path
           d="m 328.913,489.846 c -10.095,-23.254 -21.57,-46.107 -25.436,-70.822 l 78.006,64.854 z"
           style="fill:#ff527d;fill-opacity:1;fill-rule:nonzero;stroke:none"
           id="path2017" /><path
           d="m 381.483,483.878 -11.025,-90.884 73.005,7.747 z"
           style="fill:#ff7b7d;fill-opacity:1;fill-rule:nonzero;stroke:none"
           id="path2019" /><path
           d="m 443.463,400.741 19.205,75.56 c -1.049,3.54 -2.205,7.056 -3.49,10.544 -2.264,9.801 -8.01,17.571 -14.628,24.751 l -63.067,-27.718 z"
           style="fill:#ff8a7d;fill-opacity:1;fill-rule:nonzero;stroke:none"
           id="path2021" /><path
           d="m 329.106,553.99 c -9.165,-18.426 -19.181,-36.647 -30.807,-53.656 -8.241,-4.001 -17.491,1.407 -26.216,2.074 l -0.715,-5.043 c 0.709,-0.135 1.407,-0.304 2.078,-0.552 0.08,-0.275 0.102,-0.499 0.075,-0.679 l 36.075,-4.095 c 9.252,12.085 22.022,21.129 32.115,32.607 -3.223,-11.875 -7.844,-23.386 -12.798,-34.8 l 52.57,-5.968 z"
           style="fill:#ff457d;fill-opacity:1;fill-rule:nonzero;stroke:none"
           id="path2023" /><path
           d="m 381.185,608.732 -64.48,0.818 c 0.009,-0.083 0.016,-0.165 0.028,-0.249 -0.347,-10.467 6.803,-18.755 14.903,-24.356 -1.645,-10.154 -0.694,-20.728 -2.454,-30.803 -0.025,-0.051 -0.051,-0.101 -0.076,-0.152 l 52.377,-70.112 z"
           style="fill:#ff447d;fill-opacity:1;fill-rule:nonzero;stroke:none"
           id="path2025" /><path
           d="m 381.483,483.878 63.067,27.718 c -12.543,13.608 -28.219,25.096 -29.255,44.271 5.113,-2.036 13.604,-2.659 16.638,1.521 -0.878,1.865 -1.332,4.595 -1.707,7.596 l -49.041,43.748 z"
           style="fill:#ff6d7d;fill-opacity:1;fill-rule:nonzero;stroke:none"
           id="path2027" /><path
           d="m 430.226,564.984 c -1.19,9.527 -1.58,21.783 -12.183,17.772 4.463,8.755 8.374,17.851 11.854,27.106 l -48.712,-1.13 z"
           style="fill:#ff6a7d;fill-opacity:1;fill-rule:nonzero;stroke:none"
           id="path2029" /><path
           d="m 467.888,666.534 c 2.163,0.975 4.327,1.953 6.466,2.971 l -0.2,1.206 z"
           style="fill:#ff587d;fill-opacity:1;fill-rule:nonzero;stroke:none"
           id="path2031" /><path
           d="m 429.897,609.862 c 4.927,13.094 8.995,26.505 12.553,39.714 l -61.265,-40.844 z"
           style="fill:#ff587d;fill-opacity:1;fill-rule:nonzero;stroke:none"
           id="path2033" /><path
           d="m 353.716,657.825 c -7.874,-5.776 -17.241,-11.397 -19.67,-21.448 -0.998,-11.961 -18.836,-14.112 -17.341,-26.827 l 64.48,-0.818 z"
           style="fill:#ff2c7d;fill-opacity:1;fill-rule:nonzero;stroke:none"
           id="path2035" /><path
           d="m 474.354,669.505 c 1.201,0.572 2.394,1.157 3.574,1.763 l -3.774,-0.557 z"
           style="fill:#ff5e7d;fill-opacity:1;fill-rule:nonzero;stroke:none"
           id="path2037" /><path
           d="m 442.45,649.576 c 0.135,0.498 0.269,0.994 0.402,1.491 6.851,7.244 15.92,11.353 25.036,15.467 l 6.266,4.177 L 355.291,659 c -0.517,-0.393 -1.042,-0.785 -1.575,-1.175 l 27.469,-49.093 z"
           style="fill:#ff437d;fill-opacity:1;fill-rule:nonzero;stroke:none"
           id="path2039" /><path
           d="m 476.874,708.992 c -6.519,-3.549 -13.149,-6.868 -19.918,-9.875 l 17.198,-28.406 15.719,61.951 c -13.34,3.243 -27.218,5.219 -39.898,8.164 -10.461,2.181 -18.752,8.594 -27.173,14.704 l 18.833,-31.105 c 12.346,-2.871 24.055,-9.5 35.239,-15.433"
           style="fill:#ff427d;fill-opacity:1;fill-rule:nonzero;stroke:none"
           id="path2041" /><path
           d="m 339.417,679.389 c 0.285,0.224 0.559,0.422 0.825,0.597 l -0.403,0.661 c -0.115,-0.409 -0.254,-0.829 -0.422,-1.258"
           style="fill:#ff097d;fill-opacity:1;fill-rule:nonzero;stroke:none"
           id="path2043" /><path
           d="m 330.035,688.593 c 1.668,0.556 3.212,0.747 4.569,0.631 l -5.042,8.264 c -1.079,-2.614 -0.197,-5.924 0.473,-8.895"
           style="fill:#ff097d;fill-opacity:1;fill-rule:nonzero;stroke:none"
           id="path2045" /><path
           d="m 378.677,769.371 c -11.809,-4.002 -23.049,-9.596 -29.879,-20.649 -3.353,-6.349 -26.33,1.2 -14.272,-6.341 -6.27,-0.702 -5.735,-1.528 -1.067,-2.427 -3.859,-1.183 -3.184,-1.974 0.489,-2.996 2.419,-6.607 -19.065,-7.825 -9.417,-10.778 9.142,-2.01 -3.574,-1.529 -5.46,1.263 1.049,-1.752 4.696,-5.141 0.498,-3.654 1.753,-2.935 8.012,-5.976 3.878,-9.267 -4.767,-3.689 6.465,-3.698 0.56,-6.438 3.876,-2.069 4.206,-8.307 8.101,-7.757 -1.297,-0.775 -2.095,-1.745 -2.546,-2.839 l 5.042,-8.264 c 4.199,-0.359 6.599,-3.694 5.235,-8.577 l 0.403,-0.661 c 7.904,5.218 7.688,-10.394 12.015,-12.174 1.198,4.359 2.898,2.009 3.263,-0.906 l 29.609,102.465 z"
           style="fill:#ff127d;fill-opacity:1;fill-rule:nonzero;stroke:none"
           id="path2047" /><path
           d="m 414.432,750.937 c -2.899,1.102 -4.375,5.121 -6.456,7.532 1.796,-1.619 9.417,-4.11 6.456,-7.532 m 42.524,-51.82 c -5.797,-2.577 -11.696,-4.926 -17.715,-6.986 -5.789,-2.436 -10.109,4.446 -12.404,8.688 5.166,-7.06 14.094,-9.719 16.788,-1.049 -4.827,1.876 0.561,7.629 -5.797,4.464 -8.732,-1.948 10.154,4.037 -1.93,3.61 8.012,1.138 4.731,4.092 -2.542,1.823 4.579,1.44 -0.979,4.51 1.395,8.252 -3.655,-1.066 -6.527,-1.449 -2.569,1.664 -9.996,1.973 -2.828,5.584 4.036,5.842 1.819,-0.245 3.624,-0.583 5.417,-1 l -18.833,31.105 c -5.995,4.35 -12.057,8.546 -19.013,10.95 -4.891,-2.285 -9.329,1.503 -13.872,2.891 h -4.788 L 355.52,666.906 c 0.1,-0.807 0.1,-1.657 -0.043,-2.421 3.699,3.521 1.609,-1.111 1.102,-3.52 3.077,1.031 0.961,9.053 5.398,5.94 3.219,-4.242 -3.077,-6.635 -6.314,-7.621 -0.123,-0.095 -0.248,-0.189 -0.372,-0.284 l 118.863,11.711 z"
           style="fill:#ff377d;fill-opacity:1;fill-rule:nonzero;stroke:none"
           id="path2049" /><path
           d="m 477.928,671.268 c 2.896,1.487 5.713,3.1 8.371,4.946 12.3,9.04 29.62,13.081 39.309,24.952 l -15.926,25.226 c -6.309,2.621 -12.989,4.61 -19.809,6.27 l -15.719,-61.951 z"
           style="fill:#ff547d;fill-opacity:1;fill-rule:nonzero;stroke:none"
           id="path2051" /><path
           d="m 530.974,710.885 v 2.303 c -6.235,5.747 -13.479,9.958 -21.292,13.204 l 15.926,-25.226 c 2.254,2.762 4.097,5.947 5.366,9.719"
           style="fill:#ff4d7d;fill-opacity:1;fill-rule:nonzero;stroke:none"
           id="path2053" /></g></g></g></svg>
