<?xml version="1.0" encoding="UTF-8" standalone="no"?>
<!-- Created with Inkscape (http://www.inkscape.org/) -->

<svg
   version="1.1"
   id="svg18468"
   xml:space="preserve"
   viewBox="0 0 1066.6667 1066.6667"
   sodipodi:docname="woman-silhouette-vector-publicdomainvectors.org.svg"
   inkscape:version="1.1.2 (b8e25be833, 2022-02-05)"
   xmlns:inkscape="http://www.inkscape.org/namespaces/inkscape"
   xmlns:sodipodi="http://sodipodi.sourceforge.net/DTD/sodipodi-0.dtd"
   xmlns="http://www.w3.org/2000/svg"
   xmlns:svg="http://www.w3.org/2000/svg"><defs
     id="defs18472"><clipPath
       clipPathUnits="userSpaceOnUse"
       id="clipPath18482"><path
         d="M 0,800 H 800 V 0 H 0 Z"
         id="path18480" /></clipPath></defs><sodipodi:namedview
     id="namedview18470"
     pagecolor="#ffffff"
     bordercolor="#666666"
     borderopacity="1.0"
     inkscape:pageshadow="2"
     inkscape:pageopacity="0.0"
     inkscape:pagecheckerboard="0"
     showgrid="false"
     inkscape:zoom="0.77906244"
     inkscape:cx="533.33337"
     inkscape:cy="533.33337"
     inkscape:window-width="1920"
     inkscape:window-height="1018"
     inkscape:window-x="-8"
     inkscape:window-y="-8"
     inkscape:window-maximized="1"
     inkscape:current-layer="g18474" /><g
     id="g18474"
     inkscape:groupmode="layer"
     inkscape:label="woman-silhouette-vector-publicdomainvectors.org"
     transform="matrix(1.3333333,0,0,-1.3333333,0,1066.6667)"><g
       id="g18476"><g
         id="g18478"
         clip-path="url(#clipPath18482)"><path
           d="m 392.751,747.023 c -0.587,0.019 -1.154,0.03 -1.708,0.022 l 5.903,-0.378 c -1.368,0.188 -2.766,0.312 -4.195,0.356"
           style="fill:#ff6d00;fill-opacity:1;fill-rule:nonzero;stroke:none"
           id="path18484" /><path
           d="m 485.681,126.399 11.649,0.693 -14.956,-0.215 c 1.839,-0.357 3.307,-0.478 3.307,-0.478"
           style="fill:#ffc579;fill-opacity:1;fill-rule:nonzero;stroke:none"
           id="path18486" /><path
           d="m 473.819,144.282 c 0.765,-5.408 1.108,-11.261 1.334,-13.259 0.259,-2.353 4.231,-3.564 7.221,-4.146 l 14.956,0.215 16.263,0.967 -17.333,13.531 c 0,0 -0.004,0.014 -0.012,0.037 l -20.949,2.949 z"
           style="fill:#ffb45c;fill-opacity:1;fill-rule:nonzero;stroke:none"
           id="path18488" /><path
           d="m 462.027,134.824 2.952,-1.659 c 0,0 -0.09,4.386 -0.145,9.333 l -2.926,-0.582 z"
           style="fill:#ffb45c;fill-opacity:1;fill-rule:nonzero;stroke:none"
           id="path18490" /><path
           d="m 396.946,746.667 -5.903,0.378 c -0.247,-0.003 -0.492,-0.009 -0.734,-0.022 -11.794,-0.547 -17.071,-7.77 -18.26,-10.54 -0.474,-1.107 -3.201,-5.418 -6.426,-10.378 l 55.463,7.862 c -5.744,6.24 -14.113,11.319 -24.14,12.7"
           style="fill:#ff5500;fill-opacity:1;fill-rule:nonzero;stroke:none"
           id="path18492" /><path
           d="m 483.253,298.715 c -0.051,0.303 -0.08,0.476 -0.08,0.476 l 7.171,2.554 c 0,0 -5.069,18.579 -5.917,22.805 -0.3,1.505 -0.92,5.262 -1.784,10.696 l -9.364,-36.184 z"
           style="fill:#ffff6d;fill-opacity:1;fill-rule:nonzero;stroke:none"
           id="path18494" /><path
           d="m 484.343,291.761 c -0.414,2.833 -0.903,5.82 -1.09,6.954 l -9.974,0.347 z"
           style="fill:#ffff7e;fill-opacity:1;fill-rule:nonzero;stroke:none"
           id="path18496" /><path
           d="m 453.446,496.819 c -0.161,2.903 -0.294,6.052 -0.294,8.548 0,1.737 -0.476,4.812 -1.167,8.358 l -8.997,-2.287 z"
           style="fill:#ffe300;fill-opacity:1;fill-rule:nonzero;stroke:none"
           id="path18498" /><path
           d="m 496.248,141.627 c -0.196,0.621 -2.946,9.385 -2.946,13.05 0,0.47 -0.027,1.078 -0.072,1.784 l -17.931,-11.885 z"
           style="fill:#ffe27e;fill-opacity:1;fill-rule:nonzero;stroke:none"
           id="path18500" /><path
           d="m 464.169,208.763 -1.293,-21.551 c 0,0 -0.452,-0.708 -1.115,-1.853 l 13.538,-40.783 17.931,11.885 c -0.324,5.008 -1.632,15.039 -1.632,17.26 0,2.533 -1.241,7.175 -1.66,10.977 -0.423,3.808 -3.812,24.509 -3.812,24.509 0,0 -0.074,6.642 -0.188,16.065 l -26.14,0.985 z"
           style="fill:#ffe36b;fill-opacity:1;fill-rule:nonzero;stroke:none"
           id="path18502" /><path
           d="m 454.825,246.158 4.973,-19.901 26.14,-0.985 c -0.271,22.195 -0.769,59.825 -1.067,62.498 -0.121,1.101 -0.314,2.525 -0.528,3.991 l -11.064,7.301 z"
           style="fill:#fff26a;fill-opacity:1;fill-rule:nonzero;stroke:none"
           id="path18504" /><path
           d="m 465.423,537.041 c 13.166,3.514 21.552,10.586 17.75,50.723 -0.409,4.326 -0.835,8.393 -1.269,12.219 l -25.3,-57.565 c 2.976,-3.401 6.246,-6.062 8.819,-5.377"
           style="fill:#ffbd00;fill-opacity:1;fill-rule:nonzero;stroke:none"
           id="path18506" /><path
           d="m 451.985,513.725 c -0.749,3.846 -1.75,8.248 -2.672,12.104 l -6.325,-14.391 z"
           style="fill:#ffbd00;fill-opacity:1;fill-rule:nonzero;stroke:none"
           id="path18508" /><path
           d="m 436.702,666.764 -0.848,-2.11 -3.404,1.665 2.149,5.101 2.103,6.321 z m 1.665,27.023 2.142,-4.219 0.816,-5.505 -2.109,-3.768 -0.849,10.129 z m 33.821,-41.403 -15.228,3.813 c -5.068,1.267 -19.409,6.766 -19.409,6.766 l 1.665,4.649 1.293,8.875 4.624,-5.91 -3.363,9.274 1.253,4.663 -1.698,5.917 c 0,0 -1.253,8.443 -3.37,14.785 -2.109,6.334 -8.039,17.318 -14.379,25.763 -0.763,1.017 -1.596,2.016 -2.49,2.988 l -55.463,-7.862 c -2.392,-3.674 -5.055,-7.705 -7.28,-11.053 l 120.044,-89.678 c -3.289,19.516 -6.199,27.01 -6.199,27.01"
           style="fill:#ff7800;fill-opacity:1;fill-rule:nonzero;stroke:none"
           id="path18510" /><path
           d="m 356.853,684.912 5.061,3.402 -3.801,-8.019 -5.917,-3.815 z m -8.026,-16.451 -1.021,-3.226 0.09,-7.072 1.747,2.239 0.849,-4.623 -2.558,-0.605 0.478,-37.718 131.271,-0.312 c -0.435,2.951 -0.869,5.694 -1.296,8.23 l -120.044,89.678 c -2.792,-4.201 -4.893,-7.329 -4.893,-7.329 l -6.082,-8.041 0.412,-32.392 z"
           style="fill:#ff7700;fill-opacity:1;fill-rule:nonzero;stroke:none"
           id="path18512" /><path
           d="m 473.279,299.062 9.364,36.184 c -1.563,9.822 -3.924,25.129 -6.641,42.541 -1.718,10.979 -6.084,28.922 -10.663,46.362 l -82.597,0.454 z"
           style="fill:#ffe226;fill-opacity:1;fill-rule:nonzero;stroke:none"
           id="path18514" /><path
           d="m 382.742,424.603 82.597,-0.454 c -6.697,25.506 -13.853,49.937 -13.853,49.937 v 14.785 l 2.522,-0.404 c 0,0 -0.315,3.883 -0.562,8.352 l -10.458,14.619 z"
           style="fill:#ffd400;fill-opacity:1;fill-rule:nonzero;stroke:none"
           id="path18516" /><path
           d="m 442.988,511.438 6.325,14.391 c -1.325,5.544 -2.483,9.958 -2.483,9.958 0,0 -0.849,6.759 -0.849,8.868 0,2.116 2.554,9.287 2.554,9.287 0,0 3.721,-6.552 8.069,-11.524 l 25.3,57.565 c -0.724,6.384 -1.474,12.086 -2.221,17.161 l -131.271,0.312 z"
           style="fill:#ffa000;fill-opacity:1;fill-rule:nonzero;stroke:none"
           id="path18518" /><path
           d="M 473.279,299.062 382.742,424.603 335.286,306.13 Z"
           style="fill:#ffc230;fill-opacity:1;fill-rule:nonzero;stroke:none"
           id="path18520" /><path
           d="m 461.761,185.359 c -2.052,-3.539 -6.134,-11.287 -5.206,-15.447 0.848,-3.807 5.067,-10.977 5.067,-10.977 l 0.286,-17.019 2.926,0.582 c -0.063,5.688 -0.078,12.117 0.145,13.473 0.431,2.539 2.129,0.822 5.512,-1.294 1.604,-1 2.638,-5.517 3.328,-10.395 l 1.48,0.294 z"
           style="fill:#ffaf47;fill-opacity:1;fill-rule:nonzero;stroke:none"
           id="path18522" /><path
           d="m 335.286,306.13 36.63,-25.805 c 0.351,6.551 0.578,11.245 0.578,11.245 0,0 19.826,-1.24 37.994,-1.659 18.168,-0.425 34.233,2.103 34.233,2.103 0,0 0.823,-11.846 2.521,-21.146 1.685,-9.293 5.937,-18.141 7.21,-23.216 l 0.373,-1.494 18.454,52.904 z"
           style="fill:#ffcd3f;fill-opacity:1;fill-rule:nonzero;stroke:none"
           id="path18524" /><path
           d="M 382.742,424.603 442.988,511.438 345.72,501.34 Z"
           style="fill:#ffb100;fill-opacity:1;fill-rule:nonzero;stroke:none"
           id="path18526" /><path
           d="m 349.231,573.376 6.766,-17.299 3.814,-8.875 v -11.415 l -3.814,-0.855 -9.737,-10.301 -0.54,-23.291 97.268,10.098 -94.576,106.018 -0.914,-39.421 c 1.033,-2.728 1.733,-4.659 1.733,-4.659"
           style="fill:#ff9d00;fill-opacity:1;fill-rule:nonzero;stroke:none"
           id="path18528" /><path
           d="m 350.936,181.74 -1.348,-0.672 28.388,-54.284 0.427,0.021 -3.806,18.598 -1.699,7.171 c 0,0 -0.849,10.162 -0.849,21.147 0,9.799 -4.358,21.28 -5.897,31.74 l -16.363,-4.245 z"
           style="fill:#ff9f37;fill-opacity:1;fill-rule:nonzero;stroke:none"
           id="path18530" /><path
           d="m 335.762,296 2.498,-0.623 c 0,0 -2.141,-13.512 -0.444,-28.721 1.685,-15.21 11.827,-62.961 11.827,-62.961 l 0.146,-2.479 16.363,4.245 c -0.186,1.265 -0.334,2.516 -0.424,3.746 -0.849,11.409 2.534,22.792 3.8,35.043 0.804,7.773 1.781,24.717 2.388,36.075 l -36.63,25.805 z"
           style="fill:#ffaa32;fill-opacity:1;fill-rule:nonzero;stroke:none"
           id="path18532" /><path
           d="m 339.958,595.339 c 1.717,-2.289 5.367,-11.565 7.54,-17.304 l 0.914,39.421 -15.452,-23.177 c 2.005,1.237 3.778,2.07 5.144,2.02 0.745,-0.027 1.377,-0.326 1.854,-0.96"
           style="fill:#ff8b00;fill-opacity:1;fill-rule:nonzero;stroke:none"
           id="path18534" /><path
           d="m 346.26,524.631 -5.048,-5.34 c 0,0 -9.312,13.962 -14.38,17.345 -5.068,3.376 -12.245,9.718 -13.936,12.676 -0.858,1.505 -3.25,4.321 -5.061,7.28 l -16.679,-25.02 c 6.242,-7.755 12.332,-15.31 13.315,-16.487 1.121,-1.35 1.881,-4.015 2.537,-7.357 l 38.712,-6.388 z"
           style="fill:#ff8b00;fill-opacity:1;fill-rule:nonzero;stroke:none"
           id="path18536" /><path
           d="m 347.934,655.174 -2.908,-0.688 2.87,3.677 -0.09,7.072 -1.121,-3.54 -3.775,-2.546 2.116,5.061 2.754,3.08 -0.412,32.392 -4.458,-5.895 v -0.627 c -1.874,-2.926 -4.454,-7.197 -5.506,-10.351 -1.69,-5.075 -1.697,-5.473 -1.697,-5.473 l -1.261,-5.505 2.554,2.104 2.109,7.169 3.88,9.986 c 0.098,-3.024 0.247,-8.81 -0.079,-13.349 -0.418,-5.91 -4.65,-10.977 -4.65,-10.977 v -12.683 c 0,0 -1.266,-2.109 -5.068,-2.951 -3.8,-0.85 -5.067,-0.014 -2.109,-1.705 2.959,-1.692 4.212,-1.261 4.212,-1.261 l -3.8,-8.019 c 0,0 -4.101,-4.237 -8.213,-8.627 l 25.13,-14.062 z"
           style="fill:#ff5f00;fill-opacity:1;fill-rule:nonzero;stroke:none"
           id="path18538" /><path
           d="m 345.72,501.34 -6.013,-4.769 c 0.226,-5.766 0.536,-15.237 0.251,-17.829 -0.352,-3.152 -1.298,-25.689 -1.373,-48.459 l 44.157,-5.68 z"
           style="fill:#ff9b00;fill-opacity:1;fill-rule:nonzero;stroke:none"
           id="path18540" /><path
           d="m 382.742,424.603 -44.157,5.68 c -0.015,-4.733 0.007,-9.476 0.08,-14.058 0.277,-17.65 -7.422,-63.173 -12.642,-91.846 l 9.263,-18.249 z"
           style="fill:#ff9d00;fill-opacity:1;fill-rule:nonzero;stroke:none"
           id="path18542" /><path
           d="m 349.231,180.891 -1.697,-5.512 0.444,-5.062 c 0,0 -2.123,-5.917 -1.699,-11.827 0.419,-5.916 2.548,-10.135 2.548,-10.135 0,0 0.779,-7.236 3.571,-12.696 l 23.048,-8.996 2.53,0.121 -28.388,54.284 z"
           style="fill:#ff6f21;fill-opacity:1;fill-rule:nonzero;stroke:none"
           id="path18544" /><path
           d="m 352.602,135.268 c 2.951,-5.486 17.332,-8.869 17.332,-8.869 l 5.512,0.264 -23.048,8.996 c 0.067,-0.131 0.134,-0.263 0.204,-0.391"
           style="fill:#ff5117;fill-opacity:1;fill-rule:nonzero;stroke:none"
           id="path18546" /><path
           d="m 326.023,324.379 c -1.821,-10.005 -3.34,-17.956 -4.113,-21.957 l 13.376,3.708 z"
           style="fill:#ff8b0f;fill-opacity:1;fill-rule:nonzero;stroke:none"
           id="path18548" /><path
           d="m 321.91,302.422 c -0.353,-1.826 -0.551,-2.832 -0.551,-2.832 l 14.403,-3.59 -0.476,10.13 z"
           style="fill:#ff901e;fill-opacity:1;fill-rule:nonzero;stroke:none"
           id="path18550" /><path
           d="m 307.008,507.728 c 0.579,-2.949 1.079,-6.423 1.676,-9.988 1.267,-7.601 17.742,6.766 17.742,6.766 0,0 4.233,-3.795 6.766,-5.062 2.534,-1.267 6.322,1.704 6.322,1.704 0,0 0.088,-1.884 0.193,-4.577 l 6.013,4.769 z"
           style="fill:#ff9100;fill-opacity:1;fill-rule:nonzero;stroke:none"
           id="path18552" /><path
           d="m 291.156,531.572 16.679,25.02 c -1.745,2.854 -2.949,5.842 -1.705,7.916 2.534,4.225 10.984,19.435 17.75,23.654 3.166,1.983 6.34,4.427 9.08,6.117 l 15.452,23.177 -25.13,14.062 c -2.999,-3.203 -6.004,-6.486 -7.428,-8.268 -2.965,-3.711 -24.504,-26.65 -29.702,-32.178 l -4.676,-47.466 c 2.71,-3.37 6.217,-7.731 9.68,-12.034"
           style="fill:#ff7600;fill-opacity:1;fill-rule:nonzero;stroke:none"
           id="path18554" /><path
           d="m 276.56,549.723 c 0,0 1.993,-2.481 4.916,-6.117 l 4.676,47.466 c -0.72,-0.765 -1.129,-1.199 -1.129,-1.199 0,0 -16.489,-18.168 -16.489,-25.769 0,-7.609 8.026,-14.381 8.026,-14.381"
           style="fill:#ff6a00;fill-opacity:1;fill-rule:nonzero;stroke:none"
           id="path18556" /></g></g></g></svg>
